<svg xmlns="http://www.w3.org/2000/svg" viewBox="0 0 24 24" fill="currentColor">
  <path d="M12 .5a12 12 0 0 0-3.8 23.4c.6.1.8-.26.8-.57v-2.1c-3.26.7-3.95-1.4-3.95-1.4-.54-1.35-1.33-1.7-1.33-1.7-1.08-.73.09-.72.09-.72 1.2.09 1.83 1.23 1.83 1.23 1.06 1.82 2.78 1.29 3.46.99.1-.77.42-1.29.76-1.59-2.6-.3-5.35-1.3-5.35-5.8 0-1.28.46-2.33 1.22-3.15-.12-.3-.53-1.52.12-3.17 0 0 .99-.32 3.24 1.2a11.2 11.2 0 0 1 5.9 0c2.25-1.52 3.24-1.2 3.24-1.2.65 1.65.24 2.87.12 3.17.76.82 1.22 1.87 1.22 3.15 0 4.52-2.76 5.49-5.38 5.78.43.37.82 1.1.82 2.22v3.29c0 .31.2.68.8.57A12 12 0 0 0 12 .5z"/>
</svg>
