<svg xmlns="http://www.w3.org/2000/svg" viewBox="0 0 24 24" fill="currentColor">
  <path d="M12 2a10 10 0 1 0 0 20 10 10 0 0 0 0-20zm7.9 9h-3.1a14.8 14.8 0 0 0-1.1-5.1A8.03 8.03 0 0 1 19.9 11zM12 4.1c1 1.4 1.7 3.4 2 6h-4c.3-2.6 1-4.6 2-6zM4.1 13h3.1c.1 1.9.6 3.7 1.3 5.1A8.03 8.03 0 0 1 4.1 13zm3.1-2H4.1a8.03 8.03 0 0 1 4.2-5.1c-.7 1.4-1.1 3.2-1.1 5.1zm2.8 2h4c-.3 2.6-1 4.6-2 6-1-1.4-1.7-3.4-2-6zm5.8 0h3.1a8.03 8.03 0 0 1-4.2 5.1c.7-1.4 1.1-3.2 1.1-5.1zm-1.1-2h-4c.3-2.6 1-4.6 2-6 1 1.4 1.7 3.4 2 6z"/>
</svg>
